HIERARCHY
ROOT hip
{
	OFFSET 0.000000 0.000000 0.000000 
	CHANNELS 6 Xposition Yposition Zposition Xrotation Zrotation Yrotation
	JOINT abdomen
	{
		OFFSET 0.000000 3.402643 0.000000 
		CHANNELS 3 Xrotation Zrotation Yrotation
		JOINT chest
		{
			OFFSET 0.000000 8.438565 -0.680529 
			CHANNELS 3 Xrotation Zrotation Yrotation
			JOINT neck
			{
				OFFSET 0.000000 10.207942 -0.272212 
				CHANNELS 3 Xrotation Zrotation Yrotation
				JOINT head
				{
					OFFSET 0.000000 3.130431 0.000000 
					CHANNELS 3 Xrotation Zrotation Yrotation
					End Site
					{
						OFFSET 0.000000 3.130435 0.000000 
					}
				}
			}
			JOINT lCollar
			{
				OFFSET 3.470700 6.669187 -0.816635 
				CHANNELS 3 Yrotation Zrotation Xrotation
				JOINT lShldr
				{
					OFFSET 3.198488 0.000000 0.000000 
					CHANNELS 3 Zrotation Yrotation Xrotation
					JOINT lForeArm
					{
						OFFSET 10.139888 0.000000 0.000000 
						CHANNELS 3 Yrotation Zrotation Xrotation
						JOINT lHand
						{
							OFFSET 8.370511 0.000000 0.000000 
							CHANNELS 3 Zrotation Yrotation Xrotation
							End Site
							{
								OFFSET 4.083176 0.000000 0.000000 
							}
						}
					}
				}
			}
			JOINT rCollar
			{
				OFFSET -3.470700 6.669187 -0.816635 
				CHANNELS 3 Yrotation Zrotation Xrotation
				JOINT rShldr
				{
					OFFSET -3.198488 0.000000 0.000000 
					CHANNELS 3 Zrotation Yrotation Xrotation
					JOINT rForeArm
					{
						OFFSET -10.139888 0.000000 0.000000 
						CHANNELS 3 Yrotation Zrotation Xrotation
						JOINT rHand
						{
							OFFSET -8.370511 0.000000 0.000000 
							CHANNELS 3 Zrotation Yrotation Xrotation
							End Site
							{
								OFFSET -4.083176 0.000000 0.000000 
							}
						}
					}
				}
			}
		}
	}
	JOINT lThigh
	{
		OFFSET 5.308129 -1.633274 1.361059 
		CHANNELS 3 Xrotation Zrotation Yrotation
		JOINT lShin
		{
			OFFSET -2.041588 -20.007561 0.000000 
			CHANNELS 3 Xrotation Zrotation Yrotation
			JOINT lFoot
			{
				OFFSET 0.000000 -19.190928 -1.224953 
				CHANNELS 3 Xrotation Yrotation Zrotation
				End Site
				{
					OFFSET 0.000000 -2.449906 4.627600 
				}
			}
		}
	}
	JOINT rThigh
	{
		OFFSET -5.308129 -1.633274 1.361059 
		CHANNELS 3 Xrotation Zrotation Yrotation
		JOINT rShin
		{
			OFFSET 2.041588 -20.007561 0.000000 
			CHANNELS 3 Xrotation Zrotation Yrotation
			JOINT rFoot
			{
				OFFSET 0.000000 -19.190928 -1.224953 
				CHANNELS 3 Xrotation Yrotation Zrotation
				End Site
				{
					OFFSET 0.000000 -2.449906 4.627600 
				}
			}
		}
	}
}
MOTION
Frames: 11
Frame Time: 0.011111
-3.737768 51.026646 2.214875 -17.900202 -0.514537 -23.494680 13.209382 -1.315360 5.120638 -17.571152 0.077838 1.351119 -9.956750 -3.319431 -0.939675 15.054713 22.230980 0.231712 2.424333 -4.683778 1.783845 19.733330 -65.167320 -31.182350 -71.459206 8.961101 17.801968 8.524705 12.647240 -40.599010 -2.738486 -1.140572 2.095526 -27.162563 84.155159 -34.714359 71.620537 -8.946312 17.898232 -8.534408 -12.637552 39.056496 8.373999 16.664597 13.703519 55.963547 -3.183370 -7.772741 9.915978 15.457570 -5.276116 10.628623 -8.469224 6.323591 46.245338 4.116324 6.795141 -25.767179 1.590351 2.911125 
-3.729348 51.054615 2.258479 -17.598309 -0.520522 -23.722115 13.096769 -1.197003 5.067307 -17.727482 0.160426 1.323776 -9.598229 -3.606090 -0.932408 15.329577 22.699224 0.326095 2.424333 -4.683778 1.783845 20.904734 -64.086685 -32.189762 -73.841164 8.526620 19.026381 8.524705 12.647240 -38.567760 -2.738486 -1.140572 2.095526 -30.698128 84.045212 -39.191753 73.557869 -8.594567 18.884638 -8.534408 -12.637552 40.433453 7.992915 16.712109 13.727958 56.148678 -3.173675 -7.811935 9.990623 15.473961 -5.311507 10.554974 -8.220303 6.868002 45.959538 4.152750 6.756486 -26.121611 0.958764 2.589142 
-3.715213 51.078373 2.297574 -17.346498 -0.359199 -23.894810 12.994566 -1.261607 4.918686 -18.001091 0.313856 1.297058 -8.877821 -3.871460 -0.976217 15.176046 22.950581 0.228096 2.424333 -4.683778 1.783845 21.905024 -62.893257 -33.012489 -76.073311 7.961181 20.207016 8.524705 12.647240 -36.390026 -2.738486 -1.140572 2.095526 -33.608952 83.881332 -43.073879 75.401764 -8.153230 19.852993 -8.534408 -12.637552 41.761578 7.577919 16.630812 13.680107 56.384361 -3.144271 -7.816216 9.928776 15.573615 -5.304528 10.465778 -8.131257 7.336992 45.653820 4.182230 6.732088 -26.535528 0.402659 2.267679 
-3.700177 51.093410 2.323437 -17.143511 0.012159 -24.034283 13.052066 -1.750339 4.815194 -18.118423 0.413940 1.308213 -8.735155 -3.864496 -1.149361 15.181313 23.102367 -0.097060 2.424333 -4.683778 1.783845 23.280550 -61.884258 -34.314045 -78.153084 7.266712 21.360182 8.524705 12.647240 -34.231819 -2.738486 -1.140572 2.095526 -35.874809 83.438690 -46.707596 77.101807 -7.647972 20.783548 -8.534408 -12.637552 43.099464 7.077380 16.325254 13.567080 56.658428 -3.105342 -7.847608 9.999809 15.687478 -5.350475 10.309165 -8.277688 7.750413 45.339603 4.201860 6.684013 -27.005699 -0.191414 1.926380 
-3.685743 51.106045 2.339075 -17.001186 0.383980 -24.128340 13.339507 -2.364058 4.806336 -18.108669 0.402930 1.356895 -9.113503 -4.033806 -1.274022 15.607230 23.810234 -0.255359 2.424333 -4.683778 1.783845 24.923954 -61.062416 -36.070900 -80.023003 6.473901 22.484665 8.524705 12.647240 -32.161510 -2.738486 -1.140572 2.095526 -37.568378 82.720520 -50.171154 78.706047 -7.057647 21.701626 -8.534408 -12.637552 44.173687 6.586859 16.047705 13.511006 56.981716 -3.085811 -7.863856 10.116681 15.766351 -5.372419 10.230806 -8.432556 8.103694 44.984570 4.224120 6.672173 -27.520493 -0.832833 1.568485 
-3.674014 51.104542 2.345991 -16.841429 0.680158 -24.195066 13.678014 -2.890501 4.764200 -18.128159 0.373498 1.385443 -9.561488 -4.345828 -1.336250 16.251377 24.719292 -0.243917 2.424333 -4.683778 1.783845 26.400652 -60.029659 -37.704857 -81.698135 5.579016 23.580179 8.524705 12.647240 -30.266979 -2.738486 -1.140572 2.095526 -39.134914 81.909248 -53.500080 80.155151 -6.414982 22.578571 -8.534408 -12.637552 45.062359 6.060772 15.921945 13.552714 57.353127 -3.046840 -7.912467 10.293558 15.539577 -5.368519 10.209434 -8.509186 8.428994 44.620300 4.260389 6.616506 -28.160641 -1.315371 1.231069 
-3.655369 51.092506 2.345991 -16.608925 0.865675 -24.226450 14.037594 -3.230628 4.759251 -18.303871 0.357704 1.413239 -9.766547 -4.698049 -1.443132 16.654375 25.547222 -0.393441 2.424333 -4.683778 1.783845 27.528526 -58.987530 -39.172318 -83.124229 4.625034 24.652689 8.524705 12.647240 -28.675182 -2.738486 -1.140572 2.095526 -40.425907 81.002357 -56.459923 81.413116 -5.753654 23.400841 -8.534408 -12.637552 45.804546 5.435689 16.019827 13.665116 57.832939 -2.988239 -7.950181 10.334862 15.306285 -5.327038 10.238140 -8.469579 8.712400 44.185570 4.309562 6.578482 -28.824528 -1.711128 0.923101 
-3.636122 51.088001 2.336068 -16.223158 0.966928 -24.219625 14.300238 -3.432854 4.784711 -18.440561 0.360630 1.441675 -9.874307 -5.033099 -1.581666 16.726055 26.357220 -0.660382 2.424333 -4.683778 1.783845 28.594355 -58.074223 -40.860218 -84.218781 3.711828 25.627296 8.524705 12.647240 -27.503309 -2.738486 -1.140572 2.095526 -41.652912 79.961899 -59.481220 82.556122 -5.038890 24.216841 -8.534408 -12.637552 46.312359 4.589192 16.356556 13.874580 58.371330 -2.939361 -7.987169 10.675909 15.150317 -5.359174 10.171129 -8.295167 8.966263 43.673923 4.348509 6.501040 -29.424673 -2.101236 0.624800 
-3.617176 51.090706 2.320731 -15.725206 0.914474 -24.112196 14.581514 -3.417802 4.816095 -18.459969 0.292625 1.450300 -10.040038 -5.259721 -1.760916 16.573822 26.912094 -1.061009 2.424333 -4.683778 1.783845 29.655613 -57.190163 -42.706203 -85.027580 2.880883 26.568888 8.524705 12.647240 -26.604872 -2.738486 -1.140572 2.095526 -42.846291 78.777565 -62.574158 83.545982 -4.301410 25.014084 -8.534408 -12.637552 46.781109 3.571983 16.978468 14.085370 58.967796 -2.871035 -8.046948 11.286080 14.982061 -5.411963 10.104509 -7.955442 9.075728 43.072220 4.397623 6.438314 -30.015730 -2.390728 0.369957 
-3.587705 51.088902 2.313213 -15.224959 0.932043 -23.884260 14.854313 -3.376777 4.763872 -18.508652 0.225781 1.429562 -10.107329 -5.430382 -1.981559 16.211525 27.043240 -1.628688 2.424333 -4.683778 1.783845 30.489527 -56.303246 -44.530056 -85.592873 2.157691 27.476755 8.524705 12.647240 -25.872448 -2.738486 -1.140572 2.095526 -44.059460 77.487564 -65.522980 84.317146 -3.627631 25.745817 -8.534408 -12.637552 47.210796 2.526864 17.513927 14.154603 59.603436 -2.792896 -8.103856 11.768551 14.825349 -5.448527 10.062507 -7.728365 8.959647 42.410503 4.456435 6.373618 -30.459332 -2.653017 0.145361 
-3.551617 51.080479 2.289155 -14.743947 0.888563 -23.615076 15.236552 -3.244421 4.707303 -18.674557 0.200843 1.409047 -10.088249 -5.755332 -2.143801 15.875112 27.387226 -2.099594 2.424333 -4.683778 1.783845 31.175238 -55.401337 -46.267227 -85.940956 1.617457 28.352180 8.524705 12.647240 -24.964245 -2.738486 -1.140572 2.095526 -45.282387 76.181526 -68.384308 84.932076 -2.991927 26.451082 -8.534408 -12.637552 47.611183 1.415596 18.144108 14.205166 60.248756 -2.724631 -8.156533 12.262635 14.760179 -5.498060 10.063408 -7.445126 8.902261 41.701534 4.488842 6.295287 -30.837376 -2.984337 -0.107169 
